<svg width="14" height="14" viewBox="0 0 14 14" fill="none" xmlns="http://www.w3.org/2000/svg">
<path d="M12.4444 0H1.55556C0.7 0 0 0.7 0 1.55556V12.4444C0 13.3 0.7 14 1.55556 14H12.4444C13.3 14 14 13.3 14 12.4444V1.55556C14 0.7 13.3 0 12.4444 0ZM10.8889 4.66667H9.56667L5.67778 11.6667H3.11111C2.46556 11.6667 1.94444 11.1456 1.94444 10.5C1.94444 9.85444 2.46556 9.33333 3.11111 9.33333H4.43333L8.32222 2.33333H10.8889C11.5344 2.33333 12.0556 2.85444 12.0556 3.5C12.0556 4.14556 11.5344 4.66667 10.8889 4.66667Z" fill="#323232"/>
</svg>
